<svg xmlns="http://www.w3.org/2000/svg" viewBox="0 0 400 400" width="400" height="400">
  <defs>
    <!-- Gradients for lighthouse stripes -->
    <linearGradient id="lighthouse-stripes" x1="0%" y1="0%" x2="0%" y2="100%">
      <stop offset="0%" style="stop-color:#ef5350;stop-opacity:1" />
      <stop offset="20%" style="stop-color:#ef5350;stop-opacity:1" />
      <stop offset="20%" style="stop-color:#ffffff;stop-opacity:1" />
      <stop offset="40%" style="stop-color:#ffffff;stop-opacity:1" />
      <stop offset="40%" style="stop-color:#ef5350;stop-opacity:1" />
      <stop offset="60%" style="stop-color:#ef5350;stop-opacity:1" />
      <stop offset="60%" style="stop-color:#ffffff;stop-opacity:1" />
      <stop offset="80%" style="stop-color:#ffffff;stop-opacity:1" />
      <stop offset="80%" style="stop-color:#ef5350;stop-opacity:1" />
      <stop offset="100%" style="stop-color:#ef5350;stop-opacity:1" />
    </linearGradient>
    
    <!-- Sky gradient -->
    <linearGradient id="sky-gradient" x1="0%" y1="0%" x2="0%" y2="100%">
      <stop offset="0%" style="stop-color:#e3f2fd;stop-opacity:1" />
      <stop offset="100%" style="stop-color:#bbdefb;stop-opacity:1" />
    </linearGradient>
    
    <!-- Sea gradient -->
    <linearGradient id="sea-gradient" x1="0%" y1="0%" x2="0%" y2="100%">
      <stop offset="0%" style="stop-color:#4fc3f7;stop-opacity:1" />
      <stop offset="100%" style="stop-color:#0288d1;stop-opacity:1" />
    </linearGradient>
    
    <!-- Light beam gradient -->
    <radialGradient id="beam-gradient" cx="50%" cy="50%">
      <stop offset="0%" style="stop-color:#fff59d;stop-opacity:0.8" />
      <stop offset="100%" style="stop-color:#fff59d;stop-opacity:0" />
    </radialGradient>
  </defs>
  
  <!-- Background circle with sky -->
  <circle cx="200" cy="200" r="195" fill="url(#sky-gradient)" />
  
  <!-- Sun -->
  <circle cx="320" cy="80" r="25" fill="#fff59d" opacity="0.8">
    <animate attributeName="opacity" values="0.6;0.9;0.6" dur="4s" repeatCount="indefinite"/>
  </circle>
  
  <!-- Clouds -->
  <g opacity="0.6">
    <ellipse cx="100" cy="60" rx="30" ry="15" fill="white"/>
    <ellipse cx="120" cy="58" rx="25" ry="12" fill="white"/>
  </g>
  
  <!-- Sea waves -->
  <path d="M 5 280 Q 100 270, 200 280 T 395 280 L 395 395 L 5 395 Z" fill="url(#sea-gradient)" opacity="0.8"/>
  <path d="M 5 300 Q 100 290, 200 300 T 395 300 L 395 395 L 5 395 Z" fill="#0288d1" opacity="0.4"/>
  
  <!-- Sandy ground -->
  <ellipse cx="200" cy="340" rx="120" ry="40" fill="#ffcc80" opacity="0.9"/>
  
  <!-- Lighthouse base -->
  <path d="M 150 320 L 140 340 L 260 340 L 250 320 Z" fill="#8d6e63" opacity="0.8"/>
  
  <!-- Lighthouse tower with stripes -->
  <path d="M 170 340 L 175 100 L 225 100 L 230 340 Z" fill="url(#lighthouse-stripes)" stroke="#8d6e63" stroke-width="2"/>
  
  <!-- Lighthouse gallery -->
  <rect x="165" y="95" width="70" height="8" fill="#5d4037" stroke="#3e2723" stroke-width="1"/>
  
  <!-- Lighthouse lantern room -->
  <rect x="170" y="70" width="60" height="25" fill="#ef5350" stroke="#8d6e63" stroke-width="2"/>
  
  <!-- Lighthouse roof -->
  <path d="M 165 70 L 200 45 L 235 70 Z" fill="#c62828" stroke="#8d6e63" stroke-width="2"/>
  
  <!-- Rotating light beam -->
  <g opacity="0.5">
    <path d="M 200 80 L 120 40 L 140 200 Z" fill="url(#beam-gradient)">
      <animateTransform
        attributeName="transform"
        type="rotate"
        from="0 200 80"
        to="360 200 80"
        dur="10s"
        repeatCount="indefinite"/>
    </path>
  </g>
  
  <!-- Light source -->
  <circle cx="200" cy="80" r="8" fill="#fff59d">
    <animate attributeName="r" values="8;10;8" dur="2s" repeatCount="indefinite"/>
  </circle>
  
  <!-- Windows -->
  <circle cx="200" cy="140" r="8" fill="#fff59d" stroke="#8d6e63" stroke-width="1" opacity="0.9"/>
  <circle cx="200" cy="200" r="8" fill="#fff59d" stroke="#8d6e63" stroke-width="1" opacity="0.9"/>
  <circle cx="200" cy="260" r="8" fill="#fff59d" stroke="#8d6e63" stroke-width="1" opacity="0.9"/>
  
  <!-- Door -->
  <rect x="193" y="300" width="14" height="40" fill="#5d4037" stroke="#3e2723" stroke-width="1"/>
  
  <!-- Seagulls -->
  <g stroke="#4b5563" stroke-width="2" fill="none" stroke-linecap="round">
    <path d="M 50 100 Q 55 95, 60 100">
      <animateTransform
        attributeName="transform"
        type="translate"
        values="0,0; 20,5; 0,0"
        dur="8s"
        repeatCount="indefinite"/>
    </path>
  </g>
  
  <!-- Small boat -->
  <g transform="translate(300, 270)">
    <path d="M -10 10 Q -10 15, -5 15 L 5 15 Q 10 15, 10 10 Z" fill="#8d6e63"/>
    <rect x="-1" y="-10" width="2" height="20" fill="#5d4037"/>
    <path d="M 1 -5 L 12 5 L 1 8 Z" fill="white" opacity="0.9"/>
    <animateTransform
      attributeName="transform"
      type="rotate"
      values="-3,0,10; 3,0,10; -3,0,10"
      dur="4s"
      repeatCount="indefinite"
      additive="sum"/>
  </g>
</svg>